<svg width="63" height="63" viewBox="0 0 63 63" fill="none" xmlns="http://www.w3.org/2000/svg">
<path d="M11.8333 61V57.7222C11.8333 54.2449 13.2147 50.9101 15.6735 48.4513C18.1323 45.9925 21.4672 44.6111 24.9444 44.6111H38.0556C41.5328 44.6111 44.8677 45.9925 47.3265 48.4513C49.7853 50.9101 51.1667 54.2449 51.1667 57.7222V61M21.6667 24.9444C21.6667 27.5524 22.7027 30.0536 24.5468 31.8977C26.3909 33.7418 28.892 34.7778 31.5 34.7778C34.108 34.7778 36.6091 33.7418 38.4532 31.8977C40.2973 30.0536 41.3333 27.5524 41.3333 24.9444C41.3333 22.3365 40.2973 19.8353 38.4532 17.9912C36.6091 16.1471 34.108 15.1111 31.5 15.1111C28.892 15.1111 26.3909 16.1471 24.5468 17.9912C22.7027 19.8353 21.6667 22.3365 21.6667 24.9444ZM2 8.55556C2 6.81691 2.69067 5.14948 3.92008 3.92008C5.14948 2.69067 6.81691 2 8.55556 2H54.4444C56.1831 2 57.8505 2.69067 59.0799 3.92008C60.3093 5.14948 61 6.81691 61 8.55556V54.4444C61 56.1831 60.3093 57.8505 59.0799 59.0799C57.8505 60.3093 56.1831 61 54.4444 61H8.55556C6.81691 61 5.14948 60.3093 3.92008 59.0799C2.69067 57.8505 2 56.1831 2 54.4444V8.55556Z" stroke="white" stroke-width="3" stroke-linecap="round" stroke-linejoin="round"/>
</svg>
