<svg width="47" height="47" viewBox="0 0 47 47" fill="none" xmlns="http://www.w3.org/2000/svg">
<path d="M9.16667 45V42.6111C9.16667 40.0768 10.1734 37.6463 11.9654 35.8543C13.7574 34.0623 16.1879 33.0556 18.7222 33.0556H28.2778C30.8121 33.0556 33.2426 34.0623 35.0346 35.8543C36.8266 37.6463 37.8333 40.0768 37.8333 42.6111V45M16.3333 18.7222C16.3333 20.6229 17.0884 22.4458 18.4324 23.7898C19.7764 25.1338 21.5993 25.8889 23.5 25.8889C25.4007 25.8889 27.2236 25.1338 28.5676 23.7898C29.9116 22.4458 30.6667 20.6229 30.6667 18.7222C30.6667 16.8215 29.9116 14.9986 28.5676 13.6546C27.2236 12.3106 25.4007 11.5556 23.5 11.5556C21.5993 11.5556 19.7764 12.3106 18.4324 13.6546C17.0884 14.9986 16.3333 16.8215 16.3333 18.7222ZM2 6.77778C2 5.51063 2.50337 4.29539 3.39938 3.39938C4.29539 2.50337 5.51063 2 6.77778 2H40.2222C41.4894 2 42.7046 2.50337 43.6006 3.39938C44.4966 4.29539 45 5.51063 45 6.77778V40.2222C45 41.4894 44.4966 42.7046 43.6006 43.6006C42.7046 44.4966 41.4894 45 40.2222 45H6.77778C5.51063 45 4.29539 44.4966 3.39938 43.6006C2.50337 42.7046 2 41.4894 2 40.2222V6.77778Z" stroke="white" stroke-width="3" stroke-linecap="round" stroke-linejoin="round"/>
</svg>
